<?xml version="1.0" encoding="UTF-8"?>
<svg id="Ebene_1" xmlns="http://www.w3.org/2000/svg" viewBox="0 0 24.31 21.93">
  <path d="M12.03,20.83c3.27-1.94,5.54-5.15,7.46-8.36,1.4-2.4,2.83-4.81,3.62-7.49.16-.42.16-.85-.03-1.25-.47-1.41-2.26-1.36-3.44-1.02-2.78.7-4.48,3.19-6.58,4.93-.01.34-.39.57-.7.47-.24.19-.61.11-.77-.15-.26-.4.09-.76.44-.93.17-1.33-.66-2.51-1.53-3.44-1.35-1.44-3.22-2.31-5.18-2.46-1.51-.21-3.54.02-4.01,1.75-.41,1.38-.29,2.86.51,4.08,1.54,2.66,3.52,5.09,5.35,7.54,1.54,2.17,3.02,4.39,4.86,6.33ZM11.65,21.88c-.68-.41-1.1-1.17-1.66-1.73-1.34-1.51-2.44-3.27-3.61-4.89-1.21-1.61-2.46-3.18-3.61-4.84C1.77,8.95.65,7.49.12,5.78-.2,3.97.04,1.64,1.77.63,3.23-.27,5.06-.02,6.67.25c2.88.64,5.85,2.9,6.43,5.91,1.85-1.76,3.65-3.84,6.23-4.48,1.59-.48,3.83-.37,4.62,1.33.4.73.49,1.57.18,2.34-.67,2.24-1.77,4.3-2.93,6.32-1.72,2.99-3.54,5.94-6.13,8.25-.48.42-.98.81-1.5,1.18-.57.37-1.19,1.01-1.92.76Z"/>
</svg>